<?xml version="1.0" standalone="no"?>
<!DOCTYPE svg PUBLIC "-//W3C//DTD SVG 20010904//EN"
 "http://www.w3.org/TR/2001/REC-SVG-20010904/DTD/svg10.dtd">
<svg version="1.0" xmlns="http://www.w3.org/2000/svg"
 width="250.000000pt" height="250.000000pt" viewBox="0 0 250.000000 250.000000"
 preserveAspectRatio="xMidYMid meet">
<metadata>
Created by potrace 1.14, written by Peter Selinger 2001-2017
</metadata>
<g transform="translate(0.000000,250.000000) scale(0.100000,-0.100000)"
fill="#000000" stroke="none">
<path d="M989 2006 c-13 -28 -24 -53 -26 -55 -2 -2 -11 3 -21 12 -10 10 -22
17 -26 17 -4 0 -32 16 -63 36 l-55 35 7 -38 c21 -113 31 -194 24 -199 -7 -4
-135 51 -201 87 -10 5 -25 9 -33 9 -16 0 -8 -28 32 -118 8 -19 13 -36 10 -38
-6 -6 -66 14 -109 37 l-38 20 10 -26 c13 -34 35 -66 42 -60 2 3 5 -1 5 -8 0
-6 2 -19 4 -27 3 -11 -3 -14 -26 -11 -31 4 -64 5 -102 2 -21 -1 -21 -2 11 -62
18 -33 50 -81 72 -107 46 -54 45 -53 109 -98 44 -31 47 -35 20 -29 -16 4 -36
9 -44 11 -8 3 -53 7 -100 10 -47 3 -98 7 -113 9 l-28 3 16 -31 c26 -52 131
-144 207 -182 38 -19 76 -35 84 -35 11 0 11 -4 -2 -24 -19 -29 -15 -76 21
-241 13 -61 40 -147 68 -216 51 -126 114 -259 123 -260 4 0 31 -4 58 -7 88
-12 677 -7 708 6 15 6 31 22 36 36 5 13 25 57 45 97 42 89 96 229 89 229 -3 0
-1 6 5 13 5 6 16 39 23 72 7 33 14 67 16 75 11 52 17 102 18 151 l0 56 77 38
c70 35 197 134 173 136 -6 0 -28 2 -50 4 -22 3 -97 6 -167 7 -83 2 -128 7
-128 14 0 6 20 25 44 42 58 42 139 123 170 169 31 46 78 171 71 184 -4 5 -1 9
6 9 7 0 10 3 6 6 -3 3 -18 -3 -34 -14 -38 -27 -142 -92 -148 -92 -2 0 -1 16 2
36 6 34 5 36 -15 25 -12 -6 -27 -19 -34 -29 -7 -9 -22 -24 -32 -32 -15 -12
-12 -1 12 45 32 62 67 204 54 217 -5 5 -17 0 -28 -10 -39 -36 -132 -101 -137
-95 -3 3 -2 16 4 30 5 13 9 40 9 60 l0 36 -56 -56 c-30 -32 -57 -57 -58 -57
-2 0 -3 45 -2 99 1 136 -5 140 -90 55 -53 -54 -69 -64 -73 -51 -5 14 -10 11
-30 -14 l-24 -30 -20 33 c-11 18 -31 58 -43 88 -22 52 -23 53 -32 30 -5 -14
-26 -45 -46 -69 -20 -24 -41 -52 -47 -62 -14 -27 -22 -24 -44 22 -20 43 -92
113 -124 122 -15 3 -24 -6 -42 -47z m652 -426 c-24 -21 -41 -26 -41 -12 0 8
38 29 55 30 6 1 -1 -8 -14 -18z"/>
</g>
</svg>
